<mxfile host="app.diagrams.net" agent="Mozilla/5.0 (Windows NT 10.0; Win64; x64) AppleWebKit/537.36 (KHTML, like Gecko) Chrome/131.0.0.0 Safari/537.36 Edg/131.0.0.0" version="24.8.6">
  <diagram name="Page-1" id="HPF8irzY4nJZea5WVZVY">
    <mxGraphModel dx="1379" dy="785" grid="1" gridSize="10" guides="1" tooltips="1" connect="1" arrows="1" fold="1" page="1" pageScale="1" pageWidth="827" pageHeight="1169" math="0" shadow="0">
      <root>
        <mxCell id="0" />
        <mxCell id="1" parent="0" />
        <mxCell id="-y58oA4zmKEYbXhD044M-3" value="" style="edgeStyle=orthogonalEdgeStyle;rounded=0;orthogonalLoop=1;jettySize=auto;html=1;" edge="1" parent="1" source="-y58oA4zmKEYbXhD044M-1" target="-y58oA4zmKEYbXhD044M-2">
          <mxGeometry relative="1" as="geometry" />
        </mxCell>
        <mxCell id="-y58oA4zmKEYbXhD044M-1" value="Start" style="rounded=0;whiteSpace=wrap;html=1;" vertex="1" parent="1">
          <mxGeometry x="354" y="60" width="120" height="60" as="geometry" />
        </mxCell>
        <mxCell id="-y58oA4zmKEYbXhD044M-5" value="" style="edgeStyle=orthogonalEdgeStyle;rounded=0;orthogonalLoop=1;jettySize=auto;html=1;" edge="1" parent="1" source="-y58oA4zmKEYbXhD044M-2" target="-y58oA4zmKEYbXhD044M-4">
          <mxGeometry relative="1" as="geometry" />
        </mxCell>
        <mxCell id="-y58oA4zmKEYbXhD044M-2" value="Add the logo" style="rounded=1;whiteSpace=wrap;html=1;" vertex="1" parent="1">
          <mxGeometry x="354" y="160" width="120" height="60" as="geometry" />
        </mxCell>
        <mxCell id="-y58oA4zmKEYbXhD044M-7" value="" style="edgeStyle=orthogonalEdgeStyle;rounded=0;orthogonalLoop=1;jettySize=auto;html=1;" edge="1" parent="1" source="-y58oA4zmKEYbXhD044M-4" target="-y58oA4zmKEYbXhD044M-6">
          <mxGeometry relative="1" as="geometry" />
        </mxCell>
        <mxCell id="-y58oA4zmKEYbXhD044M-4" value="Ask the name of the b" style="rounded=1;whiteSpace=wrap;html=1;" vertex="1" parent="1">
          <mxGeometry x="339" y="280" width="150" height="90" as="geometry" />
        </mxCell>
        <mxCell id="-y58oA4zmKEYbXhD044M-9" value="" style="edgeStyle=orthogonalEdgeStyle;rounded=0;orthogonalLoop=1;jettySize=auto;html=1;" edge="1" parent="1" source="-y58oA4zmKEYbXhD044M-6" target="-y58oA4zmKEYbXhD044M-8">
          <mxGeometry relative="1" as="geometry" />
        </mxCell>
        <mxCell id="-y58oA4zmKEYbXhD044M-6" value="Ask the amount to bid" style="rounded=1;whiteSpace=wrap;html=1;" vertex="1" parent="1">
          <mxGeometry x="346" y="430" width="136" height="80" as="geometry" />
        </mxCell>
        <mxCell id="-y58oA4zmKEYbXhD044M-11" value="" style="edgeStyle=orthogonalEdgeStyle;rounded=0;orthogonalLoop=1;jettySize=auto;html=1;" edge="1" parent="1" source="-y58oA4zmKEYbXhD044M-8" target="-y58oA4zmKEYbXhD044M-10">
          <mxGeometry relative="1" as="geometry" />
        </mxCell>
        <mxCell id="-y58oA4zmKEYbXhD044M-8" value="Add the informations the user inputted in a dictionary&amp;nbsp;" style="rounded=1;whiteSpace=wrap;html=1;" vertex="1" parent="1">
          <mxGeometry x="354" y="555" width="120" height="60" as="geometry" />
        </mxCell>
        <mxCell id="-y58oA4zmKEYbXhD044M-13" value="" style="edgeStyle=orthogonalEdgeStyle;rounded=0;orthogonalLoop=1;jettySize=auto;html=1;" edge="1" parent="1" source="-y58oA4zmKEYbXhD044M-10" target="-y58oA4zmKEYbXhD044M-12">
          <mxGeometry relative="1" as="geometry" />
        </mxCell>
        <mxCell id="-y58oA4zmKEYbXhD044M-14" value="Yse" style="edgeLabel;html=1;align=center;verticalAlign=middle;resizable=0;points=[];" vertex="1" connectable="0" parent="-y58oA4zmKEYbXhD044M-13">
          <mxGeometry x="0.1628" relative="1" as="geometry">
            <mxPoint as="offset" />
          </mxGeometry>
        </mxCell>
        <mxCell id="-y58oA4zmKEYbXhD044M-17" value="" style="edgeStyle=orthogonalEdgeStyle;rounded=0;orthogonalLoop=1;jettySize=auto;html=1;" edge="1" parent="1" source="-y58oA4zmKEYbXhD044M-10" target="-y58oA4zmKEYbXhD044M-16">
          <mxGeometry relative="1" as="geometry" />
        </mxCell>
        <mxCell id="-y58oA4zmKEYbXhD044M-10" value="Are there other biders?" style="rhombus;whiteSpace=wrap;html=1;" vertex="1" parent="1">
          <mxGeometry x="356" y="670" width="116" height="120" as="geometry" />
        </mxCell>
        <mxCell id="-y58oA4zmKEYbXhD044M-15" value="" style="edgeStyle=orthogonalEdgeStyle;rounded=0;orthogonalLoop=1;jettySize=auto;html=1;" edge="1" parent="1" source="-y58oA4zmKEYbXhD044M-12" target="-y58oA4zmKEYbXhD044M-2">
          <mxGeometry relative="1" as="geometry">
            <Array as="points">
              <mxPoint x="414" y="140" />
            </Array>
          </mxGeometry>
        </mxCell>
        <mxCell id="-y58oA4zmKEYbXhD044M-12" value="Clear the page" style="rounded=0;whiteSpace=wrap;html=1;" vertex="1" parent="1">
          <mxGeometry x="100" y="400" width="120" height="60" as="geometry" />
        </mxCell>
        <mxCell id="-y58oA4zmKEYbXhD044M-19" value="" style="edgeStyle=orthogonalEdgeStyle;rounded=0;orthogonalLoop=1;jettySize=auto;html=1;" edge="1" parent="1" source="-y58oA4zmKEYbXhD044M-16" target="-y58oA4zmKEYbXhD044M-18">
          <mxGeometry relative="1" as="geometry" />
        </mxCell>
        <mxCell id="-y58oA4zmKEYbXhD044M-16" value="Clear the page" style="whiteSpace=wrap;html=1;" vertex="1" parent="1">
          <mxGeometry x="354" y="900" width="120" height="60" as="geometry" />
        </mxCell>
        <mxCell id="-y58oA4zmKEYbXhD044M-21" value="" style="edgeStyle=orthogonalEdgeStyle;rounded=0;orthogonalLoop=1;jettySize=auto;html=1;" edge="1" parent="1" source="-y58oA4zmKEYbXhD044M-18" target="-y58oA4zmKEYbXhD044M-20">
          <mxGeometry relative="1" as="geometry" />
        </mxCell>
        <mxCell id="-y58oA4zmKEYbXhD044M-18" value="Delay for 5 seconds" style="rounded=1;whiteSpace=wrap;html=1;" vertex="1" parent="1">
          <mxGeometry x="354" y="1000" width="120" height="60" as="geometry" />
        </mxCell>
        <mxCell id="-y58oA4zmKEYbXhD044M-23" value="" style="edgeStyle=orthogonalEdgeStyle;rounded=0;orthogonalLoop=1;jettySize=auto;html=1;" edge="1" parent="1" source="-y58oA4zmKEYbXhD044M-20" target="-y58oA4zmKEYbXhD044M-22">
          <mxGeometry relative="1" as="geometry" />
        </mxCell>
        <mxCell id="-y58oA4zmKEYbXhD044M-20" value="Find the highest Bidder from the dictionnary and declare them as the winner&amp;nbsp;" style="rounded=1;whiteSpace=wrap;html=1;" vertex="1" parent="1">
          <mxGeometry x="341" y="1120" width="146" height="100" as="geometry" />
        </mxCell>
        <mxCell id="-y58oA4zmKEYbXhD044M-22" value="End" style="rounded=0;whiteSpace=wrap;html=1;" vertex="1" parent="1">
          <mxGeometry x="352" y="1270" width="120" height="60" as="geometry" />
        </mxCell>
      </root>
    </mxGraphModel>
  </diagram>
</mxfile>
